<?xml version="1.0" encoding="UTF-8" standalone="no"?>
<!-- Created with Inkscape (http://www.inkscape.org/) -->

<svg
   xmlns:dc="http://purl.org/dc/elements/1.1/"
   xmlns:cc="http://creativecommons.org/ns#"
   xmlns:rdf="http://www.w3.org/1999/02/22-rdf-syntax-ns#"
   xmlns:svg="http://www.w3.org/2000/svg"
   xmlns="http://www.w3.org/2000/svg"
   xmlns:sodipodi="http://sodipodi.sourceforge.net/DTD/sodipodi-0.dtd"
   xmlns:inkscape="http://www.inkscape.org/namespaces/inkscape"
   width="210mm"
   height="297mm"
   viewBox="0 0 210 297"
   version="1.1"
   id="svg8"
   inkscape:version="0.92.5 (2060ec1f9f, 2020-04-08)"
   sodipodi:docname="visibility.svg">
  <defs
     id="defs2" />
  <sodipodi:namedview
     id="base"
     pagecolor="#ffffff"
     bordercolor="#666666"
     borderopacity="1.0"
     inkscape:pageopacity="0.0"
     inkscape:pageshadow="2"
     inkscape:zoom="7.9195959"
     inkscape:cx="439.37964"
     inkscape:cy="599.369"
     inkscape:document-units="mm"
     inkscape:current-layer="layer1"
     showgrid="false"
     inkscape:window-width="3840"
     inkscape:window-height="2096"
     inkscape:window-x="0"
     inkscape:window-y="27"
     inkscape:window-maximized="1" />
  <metadata
     id="metadata5">
    <rdf:RDF>
      <cc:Work
         rdf:about="">
        <dc:format>image/svg+xml</dc:format>
        <dc:type
           rdf:resource="http://purl.org/dc/dcmitype/StillImage" />
        <dc:title></dc:title>
      </cc:Work>
    </rdf:RDF>
  </metadata>
  <g
     inkscape:label="Layer 1"
     inkscape:groupmode="layer"
     id="layer1">
    <path
       style="opacity:1;fill:#000000;fill-opacity:1;stroke:none;stroke-width:3.77947283"
       d="M 468.95703 454.81055 A 46.214177 46.214173 0 0 0 464.95898 455.01562 A 78.538216 78.538216 0 0 1 468.95703 454.81055 z M 464.95898 455.01562 A 78.538216 78.538216 0 0 0 397.47852 500.99414 A 78.538216 78.538216 0 0 0 468.96094 547.23828 A 46.214177 46.214173 0 0 1 422.74805 501.02344 A 46.214177 46.214173 0 0 1 464.95898 455.01562 z M 468.96484 454.81055 A 46.214177 46.214173 0 0 1 515.17773 501.02344 A 46.214177 46.214173 0 0 1 472.96875 547.0332 A 78.538216 78.538216 0 0 0 540.44727 501.05078 A 78.538216 78.538216 0 0 0 468.96484 454.81055 z M 472.96875 547.0332 A 78.538216 78.538216 0 0 1 468.96289 547.23828 A 46.214177 46.214173 0 0 0 472.96875 547.0332 z "
       transform="scale(0.26458333)"
       id="path817"
       inkscape:export-xdpi="201.44263"
       inkscape:export-ydpi="201.44263" />
    <ellipse
       style="opacity:1;fill:#000025;fill-opacity:1;stroke:none;stroke-width:0.76778799"
       id="path843-6"
       cx="124.07977"
       cy="132.56271"
       rx="7.5"
       ry="7.4999995"
       inkscape:export-xdpi="201.44263"
       inkscape:export-ydpi="201.44263" />
  </g>
</svg>
